<svg id="svg" version="1.1" width="400" height="400" xmlns="http://www.w3.org/2000/svg" xmlns:xlink="http://www.w3.org/1999/xlink" style="display: block;"><g id="svgg"><path id="path0" d="M120.000 85.631 C 116.383 87.678,84.023 106.484,78.000 110.039 C 77.175 110.526,70.875 114.099,64.000 117.979 C 57.125 121.860,50.825 125.480,50.000 126.025 C 49.175 126.569,47.375 127.569,46.000 128.246 C 44.625 128.923,42.905 130.044,42.179 130.738 C 41.452 131.432,40.362 132.000,39.757 132.000 C 39.152 132.000,37.947 132.612,37.079 133.360 C 36.210 134.108,33.025 136.057,30.000 137.692 C 22.230 141.891,19.716 143.340,18.000 144.610 C 17.175 145.220,13.958 147.093,10.851 148.771 C 7.744 150.449,3.983 152.620,2.493 153.597 L -0.217 155.372 0.272 168.936 C 0.730 181.651,1.376 185.528,5.697 201.500 C 8.957 213.549,19.448 237.300,23.621 242.079 C 24.380 242.947,25.000 244.018,25.000 244.459 C 25.000 244.900,26.575 247.453,28.500 250.133 C 30.425 252.812,32.000 255.416,32.000 255.919 C 32.000 256.422,32.341 256.983,32.757 257.167 C 33.174 257.350,35.072 259.525,36.975 262.000 C 40.972 267.197,48.204 275.119,52.398 278.892 C 53.992 280.327,56.242 282.452,57.398 283.615 C 59.573 285.804,70.981 294.558,74.500 296.740 C 80.588 300.514,91.965 306.674,95.000 307.841 C 119.565 317.283,137.405 318.447,158.500 311.984 C 173.961 307.247,190.093 294.135,196.891 280.781 C 199.236 276.173,200.117 276.409,204.000 282.685 C 224.326 315.540,262.171 324.758,306.500 307.652 C 313.379 304.997,333.197 292.624,339.000 287.361 C 346.414 280.636,357.000 269.855,357.000 269.029 C 357.000 268.463,357.388 268.000,357.861 268.000 C 358.667 268.000,369.298 254.683,371.500 250.915 C 380.433 235.629,384.342 228.386,386.566 223.000 C 388.042 219.425,390.094 214.592,391.125 212.261 C 392.156 209.929,393.000 207.515,393.000 206.895 C 393.000 206.275,393.674 203.683,394.497 201.134 C 400.371 182.956,402.237 155.903,397.750 153.993 C 396.512 153.466,393.858 152.014,391.850 150.767 C 384.978 146.499,371.651 138.766,360.000 132.287 C 358.625 131.522,355.700 129.787,353.500 128.431 C 351.300 127.075,348.600 125.531,347.500 125.000 C 346.400 124.469,343.700 122.914,341.500 121.545 C 339.300 120.176,336.150 118.369,334.500 117.530 C 332.850 116.691,330.150 115.128,328.500 114.058 C 325.279 111.969,323.774 111.104,314.500 106.013 C 311.200 104.202,307.790 102.108,306.921 101.360 C 306.053 100.612,305.088 100.000,304.777 100.000 C 304.466 100.000,297.926 96.400,290.244 92.000 C 282.562 87.600,275.292 84.000,274.089 84.000 C 265.212 84.000,238.599 106.796,223.890 127.000 C 213.931 140.679,210.084 147.443,202.281 164.993 L 200.284 169.486 193.978 156.493 C 190.510 149.347,187.296 143.350,186.836 143.167 C 186.376 142.983,186.000 142.411,186.000 141.895 C 186.000 141.089,182.079 134.578,179.740 131.500 C 179.322 130.950,176.397 127.105,173.240 122.955 C 162.231 108.483,143.947 92.140,130.790 85.010 C 126.127 82.484,125.497 82.520,120.000 85.631 M154.072 142.569 C 157.945 146.280,159.605 154.164,158.018 161.314 C 152.077 188.078,125.132 202.471,116.904 183.276 C 107.468 161.262,138.317 127.475,154.072 142.569 M266.111 142.586 C 284.597 154.888,290.716 181.695,277.102 190.742 C 262.477 200.461,236.384 170.557,241.997 150.510 C 245.280 138.786,255.402 135.460,266.111 142.586 M139.395 152.250 C 131.639 158.322,127.041 166.972,127.011 175.550 C 126.966 188.300,144.316 173.413,146.503 158.825 C 147.791 150.239,145.120 147.769,139.395 152.250 M253.495 153.022 C 251.969 159.972,255.570 169.570,262.185 176.185 C 270.656 184.656,275.381 180.937,271.805 168.616 C 268.250 156.368,255.201 145.255,253.495 153.022 M82.727 191.378 C 105.664 203.081,92.500 226.245,63.756 224.761 C 36.966 223.378,26.988 202.269,48.000 191.428 C 56.137 187.230,74.545 187.204,82.727 191.378 M351.000 191.591 C 373.819 203.444,362.816 225.000,333.946 225.000 C 305.310 225.000,295.086 203.475,318.000 191.429 C 325.595 187.436,343.166 187.523,351.000 191.591 M53.000 202.130 C 45.446 206.710,48.680 211.132,61.250 213.411 C 64.380 213.978,65.000 214.496,65.000 216.545 C 65.000 217.895,65.450 219.000,66.000 219.000 C 66.550 219.000,67.000 217.942,67.000 216.648 C 67.000 214.600,67.842 214.069,73.526 212.530 C 83.612 209.800,85.317 205.276,77.633 201.630 C 72.253 199.077,57.543 199.375,53.000 202.130 M322.289 202.240 C 314.037 206.387,319.701 214.000,331.038 214.000 C 332.551 214.000,333.000 214.686,333.000 217.000 C 333.000 218.650,333.450 220.000,334.000 220.000 C 334.550 220.000,335.000 218.650,335.000 217.000 C 335.000 214.473,335.391 214.000,337.480 214.000 C 341.081 214.000,348.218 211.066,350.265 208.744 C 356.135 202.085,333.205 196.755,322.289 202.240 M169.500 241.577 C 176.399 246.799,168.074 266.644,154.753 276.729 C 140.612 287.434,105.137 278.451,115.655 266.829 C 117.590 264.690,119.298 264.534,122.316 266.220 C 139.244 275.678,157.344 267.026,160.380 248.026 C 161.537 240.787,165.114 238.258,169.500 241.577 M251.160 248.797 C 268.514 254.216,283.697 278.487,275.919 288.375 C 271.205 294.368,266.340 290.638,264.850 279.887 C 262.532 263.154,240.855 252.274,229.550 262.169 C 226.500 264.838,221.000 261.677,221.000 257.255 C 221.000 249.838,238.646 244.889,251.160 248.797 " stroke="none" fill="#000000" fill-rule="evenodd"></path></g></svg>