<?xml version="1.0" encoding="utf-8"?>
<!-- Generator: Adobe Illustrator 17.1.0, SVG Export Plug-In . SVG Version: 6.00 Build 0)  -->
<!DOCTYPE svg PUBLIC "-//W3C//DTD SVG 1.1//EN" "http://www.w3.org/Graphics/SVG/1.1/DTD/svg11.dtd">
<svg version="1.1" id="_x2014_ÎÓÈ_1" xmlns="http://www.w3.org/2000/svg" xmlns:xlink="http://www.w3.org/1999/xlink" x="0px"
	 y="0px" width="720px" height="720px" viewBox="0 0 720 720" enable-background="new 0 0 720 720" xml:space="preserve">
<path fill-rule="evenodd" clip-rule="evenodd" fill="#FF662B" d="M366.2,72L366.2,72c-70.7,0-133.9,32.2-175.6,82.8
	c-32.5,39.3-52,89.8-52,144.8c0,47.7,14.3,92,41.5,131c48.3,68.6,129.5,151.3,186.2,217.4c56.6-66.1,137.8-148.8,186.1-217.4
	c27.1-38.5,41.5-83.9,41.5-131C593.8,173.9,491.9,72,366.2,72z"/>
<path fill-rule="evenodd" clip-rule="evenodd" fill="#ECF0F1" d="M366.2,131.9c-92.6,0-167.7,75.1-167.7,167.7
	c0,92.6,75.1,167.7,167.7,167.7c92.6,0,167.7-75.1,167.7-167.7C533.9,207,458.8,131.9,366.2,131.9z"/>
<path fill-rule="evenodd" clip-rule="evenodd" fill="#ECF0F1" d="M366.2,131.9c-92.6,0-167.7,75.1-167.7,167.7
	c0,92.6,75.1,167.7,167.7,167.7L366.2,131.9L366.2,131.9z"/>
<path fill-rule="evenodd" clip-rule="evenodd" fill="#FF662B" d="M366.2,199.8L366.2,199.8L366.2,199.8c-55.1,0-99.8,44.7-99.8,99.8
	c0,55.1,44.7,99.8,99.8,99.8h0c55.1,0,99.8-44.7,99.8-99.8C466,244.5,421.4,199.8,366.2,199.8z"/>
</svg>
